<?xml version="1.0" encoding="UTF-8" standalone="no"?>
<!-- Created with Inkscape (http://www.inkscape.org/) -->
<svg
   xmlns:dc="http://purl.org/dc/elements/1.1/"
   xmlns:cc="http://creativecommons.org/ns#"
   xmlns:rdf="http://www.w3.org/1999/02/22-rdf-syntax-ns#"
   xmlns:svg="http://www.w3.org/2000/svg"
   xmlns="http://www.w3.org/2000/svg"
   xmlns:sodipodi="http://sodipodi.sourceforge.net/DTD/sodipodi-0.dtd"
   xmlns:inkscape="http://www.inkscape.org/namespaces/inkscape"
   id="svg2"
   sodipodi:version="0.32"
   inkscape:version="0.46"
   width="210mm"
   height="297mm"
   sodipodi:docname="logo.svg"
   inkscape:output_extension="org.inkscape.output.svg.inkscape">
  <metadata
     id="metadata7">
    <rdf:RDF>
      <cc:Work
         rdf:about="">
        <dc:format>image/svg+xml</dc:format>
        <dc:type
           rdf:resource="http://purl.org/dc/dcmitype/StillImage" />
      </cc:Work>
    </rdf:RDF>
  </metadata>
  <defs
     id="defs5">
    <inkscape:perspective
       sodipodi:type="inkscape:persp3d"
       inkscape:vp_x="0 : 526.18109 : 1"
       inkscape:vp_y="0 : 1000 : 0"
       inkscape:vp_z="744.09448 : 526.18109 : 1"
       inkscape:persp3d-origin="372.04724 : 350.78739 : 1"
       id="perspective9" />
  </defs>
  <sodipodi:namedview
     inkscape:window-height="945"
     inkscape:window-width="1279"
     inkscape:pageshadow="2"
     inkscape:pageopacity="0.0"
     guidetolerance="10.0"
     gridtolerance="10.0"
     objecttolerance="10.0"
     borderopacity="1.0"
     bordercolor="#666666"
     pagecolor="#ffffff"
     id="base"
     showgrid="false"
     showguides="true"
     inkscape:guide-bbox="true"
     inkscape:zoom="1.5831323"
     inkscape:cx="282.0174"
     inkscape:cy="631.42746"
     inkscape:window-x="0"
     inkscape:window-y="26"
     inkscape:current-layer="svg2" />
  <path
     sodipodi:type="arc"
     style="opacity:1;fill:none;fill-opacity:1;fill-rule:evenodd;stroke:#000000;stroke-width:7.07106762;stroke-linecap:butt;stroke-miterlimit:4;stroke-dasharray:none;stroke-dashoffset:0;stroke-opacity:1"
     id="path3176"
     sodipodi:cx="141.13156"
     sodipodi:cy="460.67474"
     sodipodi:rx="93.200089"
     sodipodi:ry="93.200089"
     d="M 234.33165,460.67474 A 93.200089,93.200089 0 1 1 47.931473,460.67474 A 93.200089,93.200089 0 1 1 234.33165,460.67474 z"
     transform="matrix(-0.3535534,-0.3535534,0.7071068,-0.7071068,66.78213,763.67773)"
     inkscape:export-filename="/home/public/src/opt_utilities/text3227.png"
     inkscape:export-xdpi="90"
     inkscape:export-ydpi="90" />
  <path
     sodipodi:type="arc"
     style="opacity:1;fill:none;fill-opacity:1;fill-rule:evenodd;stroke:#000000;stroke-width:2.20970869;stroke-linecap:butt;stroke-miterlimit:4;stroke-dasharray:none;stroke-dashoffset:0;stroke-opacity:1"
     id="path3178"
     sodipodi:cx="141.13156"
     sodipodi:cy="460.67474"
     sodipodi:rx="93.200089"
     sodipodi:ry="93.200089"
     d="M 234.33165,460.67474 A 93.200089,93.200089 0 1 1 47.931473,460.67474 A 93.200089,93.200089 0 1 1 234.33165,460.67474 z"
     transform="matrix(-0.2828427,-0.2828427,0.5656854,-0.5656854,121.95187,688.54897)"
     inkscape:export-filename="/home/public/src/opt_utilities/text3227.png"
     inkscape:export-xdpi="90"
     inkscape:export-ydpi="90" />
  <path
     sodipodi:type="arc"
     style="opacity:1;fill:none;fill-opacity:1;fill-rule:evenodd;stroke:#000000;stroke-width:2.76213574;stroke-linecap:butt;stroke-miterlimit:4;stroke-dasharray:none;stroke-dashoffset:0;stroke-opacity:1"
     id="path3180"
     sodipodi:cx="141.13156"
     sodipodi:cy="460.67474"
     sodipodi:rx="93.200089"
     sodipodi:ry="93.200089"
     d="M 234.33165,460.67474 A 93.200089,93.200089 0 1 1 47.931473,460.67474 A 93.200089,93.200089 0 1 1 234.33165,460.67474 z"
     transform="matrix(-0.2262742,-0.2262742,0.4525483,-0.4525483,166.08766,628.44597)"
     inkscape:export-filename="/home/public/src/opt_utilities/text3227.png"
     inkscape:export-xdpi="90"
     inkscape:export-ydpi="90" />
  <path
     sodipodi:type="arc"
     style="opacity:1;fill:none;fill-opacity:1;fill-rule:evenodd;stroke:#000000;stroke-width:3.4526701;stroke-linecap:butt;stroke-miterlimit:4;stroke-dasharray:none;stroke-dashoffset:0;stroke-opacity:1"
     id="path3182"
     sodipodi:cx="141.13156"
     sodipodi:cy="460.67474"
     sodipodi:rx="93.200089"
     sodipodi:ry="93.200089"
     d="M 234.33165,460.67474 A 93.200089,93.200089 0 1 1 47.931473,460.67474 A 93.200089,93.200089 0 1 1 234.33165,460.67474 z"
     transform="matrix(-0.1810193,-0.1810193,0.3620387,-0.3620387,201.39629,580.36356)"
     inkscape:export-filename="/home/public/src/opt_utilities/text3227.png"
     inkscape:export-xdpi="90"
     inkscape:export-ydpi="90" />
  <path
     sodipodi:type="arc"
     style="opacity:1;fill:none;fill-opacity:1;fill-rule:evenodd;stroke:#000000;stroke-width:4.31583691;stroke-linecap:butt;stroke-miterlimit:4;stroke-dasharray:none;stroke-dashoffset:0;stroke-opacity:1"
     id="path3184"
     sodipodi:cx="141.13156"
     sodipodi:cy="460.67474"
     sodipodi:rx="93.200089"
     sodipodi:ry="93.200089"
     d="M 234.33165,460.67474 A 93.200089,93.200089 0 1 1 47.931473,460.67474 A 93.200089,93.200089 0 1 1 234.33165,460.67474 z"
     transform="matrix(-0.1448155,-0.1448155,0.2896309,-0.2896309,229.6432,541.89763)"
     inkscape:export-filename="/home/public/src/opt_utilities/text3227.png"
     inkscape:export-xdpi="90"
     inkscape:export-ydpi="90" />
  <path
     sodipodi:type="arc"
     style="opacity:1;fill:none;fill-opacity:1;fill-rule:evenodd;stroke:#000000;stroke-width:5.39479542;stroke-linecap:butt;stroke-miterlimit:4;stroke-dasharray:none;stroke-dashoffset:0;stroke-opacity:1"
     id="path3186"
     sodipodi:cx="141.13156"
     sodipodi:cy="460.67474"
     sodipodi:rx="93.200089"
     sodipodi:ry="93.200089"
     d="M 234.33165,460.67474 A 93.200089,93.200089 0 1 1 47.931473,460.67474 A 93.200089,93.200089 0 1 1 234.33165,460.67474 z"
     transform="matrix(-0.1158524,-0.1158524,0.2317048,-0.2317048,252.24072,511.1249)"
     inkscape:export-filename="/home/public/src/opt_utilities/text3227.png"
     inkscape:export-xdpi="90"
     inkscape:export-ydpi="90" />
  <path
     sodipodi:type="arc"
     style="opacity:1;fill:none;fill-opacity:1;fill-rule:evenodd;stroke:#000000;stroke-width:6.74349594;stroke-linecap:butt;stroke-miterlimit:4;stroke-dasharray:none;stroke-dashoffset:0;stroke-opacity:1"
     id="path3188"
     sodipodi:cx="141.13156"
     sodipodi:cy="460.67474"
     sodipodi:rx="93.200089"
     sodipodi:ry="93.200089"
     d="M 234.33165,460.67474 A 93.200089,93.200089 0 1 1 47.931473,460.67474 A 93.200089,93.200089 0 1 1 234.33165,460.67474 z"
     transform="matrix(-9.26819e-2,-9.26819e-2,0.1853638,-0.1853638,270.31874,486.50671)"
     inkscape:export-filename="/home/public/src/opt_utilities/text3227.png"
     inkscape:export-xdpi="90"
     inkscape:export-ydpi="90" />
  <path
     sodipodi:type="arc"
     style="opacity:1;fill:none;fill-opacity:1;fill-rule:evenodd;stroke:#000000;stroke-width:8.42937088;stroke-linecap:butt;stroke-miterlimit:4;stroke-dasharray:none;stroke-dashoffset:0;stroke-opacity:1"
     id="path3190"
     sodipodi:cx="141.13156"
     sodipodi:cy="460.67474"
     sodipodi:rx="93.200089"
     sodipodi:ry="93.200089"
     d="M 234.33165,460.67474 A 93.200089,93.200089 0 1 1 47.931473,460.67474 A 93.200089,93.200089 0 1 1 234.33165,460.67474 z"
     transform="matrix(-7.414552e-2,-7.414552e-2,0.148291,-0.148291,284.78116,466.81216)"
     inkscape:export-filename="/home/public/src/opt_utilities/text3227.png"
     inkscape:export-xdpi="90"
     inkscape:export-ydpi="90" />
  <path
     style="font-size:92.13937378px;font-style:normal;font-weight:normal;fill:#000000;fill-opacity:1;stroke:none;stroke-width:1px;stroke-linecap:butt;stroke-linejoin:miter;stroke-opacity:1;font-family:Bitstream Vera Sans"
     d="M 408.72945,403.27365 L 408.72945,428.513 L 420.15689,428.513 C 424.38591,428.51303 427.65518,427.41828 429.9647,425.22873 C 432.27414,423.03926 433.42888,419.91996 433.42892,415.87083 C 433.42888,411.85178 432.27414,408.74747 429.9647,406.55791 C 427.65518,404.36846 424.38591,403.27371 420.15689,403.27365 L 408.72945,403.27365 M 399.64149,395.80532 L 420.15689,395.80532 C 427.68517,395.80538 433.36889,397.515 437.20808,400.93417 C 441.07716,404.32347 443.01173,409.30235 443.01178,415.87083 C 443.01173,422.49938 441.07716,427.50826 437.20808,430.89746 C 433.36889,434.28673 427.68517,435.98135 420.15689,435.98132 L 408.72945,435.98132 L 408.72945,462.97528 L 399.64149,462.97528 L 399.64149,395.80532 M 463.07729,398.27976 L 463.07729,412.58656 L 480.12847,412.58656 L 480.12847,419.02012 L 463.07729,419.02012 L 463.07729,446.374 C 463.07727,450.48309 463.63214,453.1225 464.74191,454.29222 C 465.88164,455.46197 468.17612,456.04684 471.62537,456.04683 L 480.12847,456.04683 L 480.12847,462.97528 L 471.62537,462.97528 C 465.23678,462.97528 460.82777,461.79055 458.39833,459.42108 C 455.96887,457.02162 454.75414,452.6726 454.75415,446.374 L 454.75415,419.02012 L 448.68051,419.02012 L 448.68051,412.58656 L 454.75415,412.58656 L 454.75415,398.27976 L 463.07729,398.27976"
     id="text3198"
     inkscape:export-filename="/home/public/src/opt_utilities/text3227.png"
     inkscape:export-xdpi="90"
     inkscape:export-ydpi="90" />
  <path
     style="fill:none;fill-rule:evenodd;stroke:#000000;stroke-width:1px;stroke-linecap:butt;stroke-linejoin:miter;stroke-opacity:1"
     d="M 380.41249,350.8804 L 343.21847,388.07442 L 346.03003,377.58153"
     id="path3208"
     inkscape:export-filename="/home/public/src/opt_utilities/text3227.png"
     inkscape:export-xdpi="90"
     inkscape:export-ydpi="90" />
  <path
     style="font-size:57.76161957px;font-style:normal;font-weight:normal;fill:#000000;fill-opacity:1;stroke:none;stroke-width:1px;stroke-linecap:butt;stroke-linejoin:miter;stroke-opacity:1;font-family:Bitstream Vera Sans"
     d="M 271.30002,465.36171 L 277.02542,465.36171 L 277.02542,490.94266 C 277.02541,495.4553 277.84332,498.70815 279.47916,500.70121 C 281.11497,502.67549 283.76613,503.66263 287.43266,503.66263 C 291.08034,503.66263 293.72211,502.67549 295.35796,500.70121 C 296.99376,498.70815 297.81167,495.4553 297.8117,490.94266 L 297.8117,465.36171 L 303.5371,465.36171 L 303.5371,491.64776 C 303.53706,497.13813 302.17387,501.2841 299.44753,504.08568 C 296.73992,506.88727 292.73497,508.28807 287.43266,508.28807 C 282.11151,508.28807 278.08775,506.88727 275.36139,504.08568 C 272.6538,501.2841 271.30002,497.13813 271.30002,491.64776 L 271.30002,465.36171 M 319.16207,466.91292 L 319.16207,475.88177 L 329.85135,475.88177 L 329.85135,479.91493 L 319.16207,479.91493 L 319.16207,497.06291 C 319.16206,499.63887 319.5099,501.2935 320.20561,502.0268 C 320.9201,502.7601 322.3585,503.12676 324.52081,503.12675 L 329.85135,503.12675 L 329.85135,507.47015 L 324.52081,507.47015 C 320.51584,507.47015 317.75186,506.72745 316.22886,505.24204 C 314.70584,503.73784 313.94434,501.01146 313.94434,497.06291 L 313.94434,479.91493 L 310.13681,479.91493 L 310.13681,475.88177 L 313.94434,475.88177 L 313.94434,466.91292 L 319.16207,466.91292 M 336.70491,475.88177 L 341.89443,475.88177 L 341.89443,507.47015 L 336.70491,507.47015 L 336.70491,475.88177 M 336.70491,463.58486 L 341.89443,463.58486 L 341.89443,470.15637 L 336.70491,470.15637 L 336.70491,463.58486 M 352.72473,463.58486 L 357.91425,463.58486 L 357.91425,507.47015 L 352.72473,507.47015 L 352.72473,463.58486 M 368.74455,475.88177 L 373.93407,475.88177 L 373.93407,507.47015 L 368.74455,507.47015 L 368.74455,475.88177 M 368.74455,463.58486 L 373.93407,463.58486 L 373.93407,470.15637 L 368.74455,470.15637 L 368.74455,463.58486 M 389.89749,466.91292 L 389.89749,475.88177 L 400.58677,475.88177 L 400.58677,479.91493 L 389.89749,479.91493 L 389.89749,497.06291 C 389.89748,499.63887 390.24533,501.2935 390.94104,502.0268 C 391.65552,502.7601 393.09392,503.12676 395.25623,503.12675 L 400.58677,503.12675 L 400.58677,507.47015 L 395.25623,507.47015 C 391.25127,507.47015 388.48729,506.72745 386.96428,505.24204 C 385.44127,503.73784 384.67976,501.01146 384.67977,497.06291 L 384.67977,479.91493 L 380.87224,479.91493 L 380.87224,475.88177 L 384.67977,475.88177 L 384.67977,466.91292 L 389.89749,466.91292 M 407.44033,475.88177 L 412.62986,475.88177 L 412.62986,507.47015 L 407.44033,507.47015 L 407.44033,475.88177 M 407.44033,463.58486 L 412.62986,463.58486 L 412.62986,470.15637 L 407.44033,470.15637 L 407.44033,463.58486 M 450.47951,490.37858 L 450.47951,492.91693 L 426.61899,492.91693 C 426.84462,496.48944 427.91636,499.21582 429.83424,501.09607 C 431.7709,502.95753 434.45967,503.88826 437.90056,503.88826 C 439.89362,503.88826 441.82088,503.64383 443.68236,503.15495 C 445.5626,502.66609 447.42405,501.93279 449.26674,500.95505 L 449.26674,505.86253 C 447.40525,506.65224 445.49679,507.25392 443.54134,507.66758 C 441.58585,508.08124 439.60218,508.28807 437.59032,508.28807 C 432.5512,508.28807 428.55565,506.82146 425.60365,503.88826 C 422.67044,500.95506 421.20384,496.98771 421.20384,491.9862 C 421.20384,486.81551 422.59523,482.71654 425.37802,479.6893 C 428.1796,476.6433 431.94952,475.12029 436.68779,475.12026 C 440.93716,475.12029 444.29342,476.49288 446.75659,479.23803 C 449.2385,481.96444 450.47947,485.67795 450.47951,490.37858 M 445.28999,488.85557 C 445.25235,486.0164 444.45324,483.75068 442.89265,482.05843 C 441.35082,480.36622 439.30133,479.5201 436.7442,479.52007 C 433.84858,479.5201 431.52646,480.33801 429.77783,481.97381 C 428.04798,483.60966 427.05145,485.91298 426.78822,488.88377 L 445.28999,488.85557 M 479.13468,476.8125 L 479.13468,481.71998 C 477.66805,480.9679 476.14504,480.40382 474.56564,480.02774 C 472.9862,479.65172 471.35038,479.46369 469.65816,479.46367 C 467.08219,479.46369 465.14552,479.85855 463.84816,480.64823 C 462.56957,481.43797 461.93028,482.62253 461.93029,484.20192 C 461.93028,485.40531 462.39094,486.35484 463.31228,487.05052 C 464.2336,487.72743 466.08565,488.37612 468.86845,488.99659 L 470.6453,489.39144 C 474.33059,490.18117 476.94415,491.29992 478.48599,492.74771 C 480.04658,494.17672 480.82689,496.1792 480.82691,498.75514 C 480.82689,501.68836 479.66112,504.01048 477.32963,505.72151 C 475.01688,507.43255 471.82985,508.28807 467.7685,508.28807 C 466.07625,508.28807 464.30881,508.11884 462.46616,507.7804 C 460.6423,507.46075 458.71504,506.97189 456.68436,506.31379 L 456.68436,500.95505 C 458.60222,501.95159 460.49188,502.7037 462.35335,503.21136 C 464.2148,503.70023 466.05745,503.94467 467.88132,503.94466 C 470.32564,503.94467 472.2059,503.53101 473.5221,502.70369 C 474.83826,501.85758 475.49635,500.67302 475.49637,499.15 C 475.49635,497.73981 475.01688,496.65866 474.05797,495.90655 C 473.11782,495.15446 471.04014,494.43056 467.82491,493.73485 L 466.01986,493.31179 C 462.8046,492.63491 460.48248,491.60077 459.05349,490.20936 C 457.62449,488.79918 456.90999,486.87191 456.90999,484.42755 C 456.90999,481.45677 457.96293,479.16285 460.06883,477.5458 C 462.17471,475.92881 465.16433,475.12029 469.03768,475.12026 C 470.95552,475.12029 472.76057,475.26131 474.45283,475.54332 C 476.14504,475.82539 477.70566,476.24845 479.13468,476.8125"
     id="text3227"
     inkscape:export-xdpi="90"
     inkscape:export-ydpi="90" />
</svg>
